<?xml version="1.0" encoding="UTF-8"?>
<svg id="Layer_1" data-name="Layer 1" xmlns="http://www.w3.org/2000/svg" viewBox="0 0 70 70">
  <defs>
    <style>
      .cls-1 {
        fill: #4453a4;
      }
    </style>
  </defs>
  <g id="setting-management-setting-gear-hand">
    <g>
      <path class="cls-1" d="m70.55,32.79l-4.71-9.42c-.19-.4-.6-.65-1.05-.65h-.9l-1.18-1.18h2.07c.65,0,1.18-.53,1.18-1.18v-4.71c0-.65-.53-1.18-1.18-1.18h-2.07l1.47-1.46c.46-.46.46-1.21,0-1.67l-3.33-3.33c-.46-.46-1.21-.46-1.67,0l-1.46,1.47v-2.07c0-.65-.53-1.18-1.18-1.18h-4.71c-.65,0-1.18.53-1.18,1.18v2.07l-1.46-1.47c-.46-.46-1.21-.46-1.67,0l-3.33,3.33c-.46.46-.46,1.21,0,1.67l1.47,1.46h-2.07c-.65,0-1.18.53-1.18,1.18v4.71c0,.65.53,1.18,1.18,1.18h2.07l-1.18,1.18h-6.78v-2.44c0-.99.42-1.94,1.15-2.6,4.38-3.89,4.77-10.59.88-14.97-1.08-1.22-2.43-2.17-3.95-2.78-.6-.25-1.29.04-1.54.64-.06.14-.09.3-.09.45v8.1l-2.36,1.58-2.36-1.58V1.02c0-.65-.52-1.18-1.17-1.18-.16,0-.31.03-.45.09-5.43,2.2-8.05,8.38-5.85,13.81.61,1.51,1.57,2.86,2.78,3.95.74.66,1.16,1.61,1.15,2.6v2.44h-1.18c-.45,0-.85.25-1.05.65l-4.71,9.42c-.29.58-.06,1.29.52,1.58.16.08.34.13.53.13h3.53v14.39l-2.36.59v-2.03c0-.65-.53-1.18-1.18-1.18h-9.42c-.65,0-1.18.53-1.18,1.18v1.18H1.18c-.65,0-1.18.53-1.18,1.18v16.49c0,.65.53,1.18,1.18,1.18h8.25v1.18c0,.65.53,1.18,1.18,1.18h9.42c.65,0,1.18-.53,1.18-1.18v-1.63l1.52.75c1.15.57,2.41.87,3.69.87h17.63c1.45,0,2.87-.38,4.12-1.11l19.79-11.43c2.25-1.3,3.02-4.17,1.72-6.42-.78-1.35-2.17-2.22-3.71-2.34v-12.86h3.53c.65,0,1.18-.53,1.17-1.18,0-.18-.04-.36-.13-.53ZM9.42,65.13H2.36v-14.14h7.07v14.14Zm9.42,2.36h-7.07v-18.85h7.07v18.85Zm25.91-48.3v-2.36h2.77c.52,0,.98-.34,1.13-.84.05-.17.12-.33.2-.48.24-.46.15-1.01-.21-1.38l-1.97-1.96,1.67-1.67,1.96,1.97c.36.36.92.45,1.38.21.15-.08.32-.15.48-.2.5-.15.83-.61.84-1.13v-2.77h2.36v2.77c0,.52.34.98.84,1.13.17.05.33.12.48.2.46.24,1.01.15,1.38-.21l1.96-1.97,1.67,1.67-1.97,1.96c-.36.36-.45.92-.21,1.38.08.15.15.32.2.48.15.5.61.83,1.13.84h2.77v2.36h-2.77c-.52,0-.98.34-1.13.84-.05.17-.12.33-.2.48-.24.46-.15,1.01.21,1.38l.85.84h-12.77l.85-.84c.36-.36.45-.92.21-1.38-.08-.15-.15-.32-.2-.48-.15-.5-.61-.83-1.13-.84h-2.77Zm1.18,9.71l2.49,4.96c.19.4.6.65,1.05.65h14.14v13.29c-.12.06-.25.12-.37.18l-11.49,6.63c-.63-.94-1.57-1.62-2.66-1.92l-3.16-.84v-22.95ZM23.56,9.76c0-2.7,1.31-5.23,3.53-6.77v6.77c0,.39.2.76.53.98l3.53,2.36c.39.27.91.27,1.3,0l3.53-2.36c.33-.22.53-.58.53-.98V2.99c3.74,2.6,4.66,7.74,2.06,11.48-.37.53-.8,1.01-1.28,1.44-1.25,1.11-1.96,2.7-1.96,4.37v2.44h-2.36v-3.53c0-.65-.53-1.18-1.18-1.18s-1.18.53-1.18,1.18v3.53h-2.36v-2.44c0-1.67-.7-3.26-1.94-4.37-1.76-1.56-2.77-3.8-2.77-6.15Zm-1.63,22.38l3.53-7.07h17.39l-3.53,7.07h-17.39Zm21.65-3.25v22.31l-12.06-3.23c-1.35-.36-2.78-.38-4.13-.04l-1.47.37v-13.81h14.14c.45,0,.85-.25,1.05-.65l2.49-4.96Zm24.04,21.98c.65,1.12.27,2.56-.85,3.22l-19.79,11.43c-.89.52-1.91.79-2.94.79h-17.63c-.92,0-1.82-.21-2.64-.62l-2.57-1.28v-12.49l6.75-1.68c.97-.25,1.99-.24,2.96.02l17.58,4.71c1.25.33,2.01,1.61,1.68,2.86-.16.62-.56,1.14-1.12,1.45-.54.32-1.18.4-1.78.24l-14.05-3.77c-.63-.17-1.28.21-1.45.84s.21,1.28.84,1.45l14.05,3.76c.4.11.81.16,1.23.16.82,0,1.63-.22,2.34-.64,1.09-.62,1.88-1.65,2.2-2.86.13-.52.17-1.06.13-1.59l11.86-6.84c1.13-.62,2.54-.24,3.2.86Zm-17.42-18.73l-3.53-7.07h17.39l3.53,7.07h-17.39Z"/>
      <path class="cls-1" d="m58.9,18.01c0-2.6-2.11-4.71-4.71-4.71s-4.71,2.11-4.71,4.71,2.11,4.71,4.71,4.71,4.71-2.11,4.71-4.71Zm-4.71,2.36c-1.3,0-2.36-1.05-2.36-2.36s1.05-2.36,2.36-2.36,2.36,1.05,2.36,2.36-1.05,2.36-2.36,2.36Z"/>
    </g>
  </g>
</svg>